<svg xmlns="http://www.w3.org/2000/svg" xmlns:xlink="http://www.w3.org/1999/xlink" width="58" height="58" viewBox="0 0 58 58"><defs><filter id="a" x="0" y="0" width="58" height="58" filterUnits="userSpaceOnUse"><feOffset dy="3" input="SourceAlpha"/><feGaussianBlur stdDeviation="3" result="b"/><feFlood flood-opacity="0.161"/><feComposite operator="in" in2="b"/><feComposite in="SourceGraphic"/></filter></defs><g transform="matrix(1, 0, 0, 1, 0, 0)" filter="url(#a)"><path d="M42.206,34.063h0L30.071,21.928,42.206,9.793h0a1.253,1.253,0,0,0,0-1.767L36.473,2.293a1.253,1.253,0,0,0-1.767,0h0L22.571,14.428,10.436,2.293h0a1.253,1.253,0,0,0-1.767,0L2.936,8.026a1.253,1.253,0,0,0,0,1.767h0L15.071,21.928,2.936,34.063h0a1.253,1.253,0,0,0,0,1.767l5.732,5.732a1.253,1.253,0,0,0,1.767,0h0L22.571,29.428,34.706,41.563h0a1.253,1.253,0,0,0,1.767,0l5.732-5.732a1.253,1.253,0,0,0,0-1.767Z" transform="translate(6.43 4.07)"/></g></svg>