<svg xmlns="http://www.w3.org/2000/svg" width="20.902" height="21.432" viewBox="0 0 20.902 21.432"><path d="M10.448,7.459a5.419,5.419,0,0,0-5.358,5.5,5.419,5.419,0,0,0,5.358,5.495,5.419,5.419,0,0,0,5.358-5.495A5.419,5.419,0,0,0,10.448,7.459Zm0,9.067a3.574,3.574,0,1,1,3.483-3.572A3.535,3.535,0,0,1,10.448,16.526Zm6.827-9.292a1.25,1.25,0,1,1-1.25-1.282A1.263,1.263,0,0,1,17.275,7.234Zm3.549,1.3a6.434,6.434,0,0,0-1.688-4.491,6.139,6.139,0,0,0-4.379-1.731c-1.725-.1-6.9-.1-8.622,0A6.13,6.13,0,0,0,1.756,4.039,6.455,6.455,0,0,0,.068,8.53c-.1,1.769-.1,7.073,0,8.843a6.434,6.434,0,0,0,1.688,4.491,6.147,6.147,0,0,0,4.379,1.731c1.725.1,6.9.1,8.622,0a6.1,6.1,0,0,0,4.379-1.731,6.476,6.476,0,0,0,1.688-4.491c.1-1.769.1-7.068,0-8.838ZM18.594,19.271a3.573,3.573,0,0,1-1.986,2.037c-1.376.56-4.64.43-6.16.43s-4.789.124-6.16-.43A3.573,3.573,0,0,1,2.3,19.271c-.546-1.411-.42-4.759-.42-6.318s-.121-4.912.42-6.318A3.573,3.573,0,0,1,4.288,4.6c1.376-.56,4.64-.43,6.16-.43s4.789-.124,6.16.43a3.573,3.573,0,0,1,1.986,2.037c.546,1.411.42,4.759.42,6.318S19.14,17.865,18.594,19.271Z" transform="translate(0.005 -2.238)" fill="#fffcf6"/></svg>